<svg width="19" height="19" viewBox="0 0 19 19" fill="none" xmlns="http://www.w3.org/2000/svg">
<mask id="path-1-inside-1_0_98" fill="white">
<path d="M15.2002 10.9003C15.7525 10.9003 16.2065 11.3497 16.1385 11.8978C15.9836 13.1464 15.5392 14.3467 14.8351 15.4004C13.945 16.7325 12.68 17.7707 11.1999 18.3837C9.71976 18.9968 8.09111 19.1572 6.51984 18.8447C4.94858 18.5321 3.50528 17.7607 2.37246 16.6279C1.23964 15.4951 0.468185 14.0518 0.155641 12.4805C-0.156903 10.9093 0.00350601 9.28065 0.616583 7.80057C1.22966 6.32048 2.26787 5.05543 3.59992 4.16539C4.65371 3.46128 5.85395 3.01688 7.1026 2.86194C7.65068 2.79393 8.10009 3.24801 8.10009 3.80029V9.90031C8.10009 10.4526 8.54781 10.9003 9.10009 10.9003H15.2002Z"/>
</mask>
<path d="M15.2002 10.9003C15.7525 10.9003 16.2065 11.3497 16.1385 11.8978C15.9836 13.1464 15.5392 14.3467 14.8351 15.4004C13.945 16.7325 12.68 17.7707 11.1999 18.3837C9.71976 18.9968 8.09111 19.1572 6.51984 18.8447C4.94858 18.5321 3.50528 17.7607 2.37246 16.6279C1.23964 15.4951 0.468185 14.0518 0.155641 12.4805C-0.156903 10.9093 0.00350601 9.28065 0.616583 7.80057C1.22966 6.32048 2.26787 5.05543 3.59992 4.16539C4.65371 3.46128 5.85395 3.01688 7.1026 2.86194C7.65068 2.79393 8.10009 3.24801 8.10009 3.80029V9.90031C8.10009 10.4526 8.54781 10.9003 9.10009 10.9003H15.2002Z" stroke="#717171" stroke-width="2" mask="url(#path-1-inside-1_0_98)"/>
<path d="M10.7998 2V7.20001C10.7998 7.7523 11.2475 8.20001 11.7998 8.20001H16.9999C17.5522 8.20001 18.0068 7.75023 17.9487 7.20101C17.4969 2.92578 14.1483 1.40217 11.7964 1.07286C11.2494 0.996278 10.7998 1.44772 10.7998 2Z" stroke="#717171"/>
</svg>
