<svg width="18" height="16" viewBox="0 0 18 16" fill="none" xmlns="http://www.w3.org/2000/svg">
<path d="M8.99999 0C6.54341 0 4.3125 0.798399 2.67829 2.11464C1.04372 3.43092 0 5.28693 0 7.35056C0 9.0084 0.673335 10.5473 1.78981 11.7692L0.63279 15.4312C0.581996 15.5928 0.625513 15.7708 0.744226 15.886C0.862939 16.0012 1.03444 16.0321 1.18255 15.9649L5.35647 14.0731C6.47839 14.4789 7.70273 14.7015 9.00002 14.7015C11.4566 14.7015 13.6875 13.903 15.3217 12.5867C16.9563 11.2704 18 9.41444 18 7.3508C18 5.28716 16.9563 3.43099 15.3217 2.11487C13.6873 0.798592 11.4564 0.000231517 9.00002 0.000231517L8.99999 0ZM8.99999 0.864727C11.2882 0.864727 13.3547 1.61606 14.8297 2.80386C16.3044 3.99165 17.1819 5.5937 17.1819 7.35064C17.1819 9.10758 16.3044 10.7099 14.8297 11.8978C13.3547 13.0855 11.2881 13.8368 8.99999 13.8368C7.72239 13.8368 6.52716 13.6254 5.45875 13.2153C5.36144 13.1771 5.254 13.1795 5.15826 13.2219L1.70005 14.7895L2.63977 11.8099C2.68771 11.6515 2.64548 11.4783 2.53104 11.3639C1.43553 10.2537 0.81801 8.84933 0.81801 7.35071C0.81801 5.59362 1.69549 3.99157 3.17026 2.80393C4.64518 1.61614 6.71179 0.864799 8.99994 0.864799L8.99999 0.864727ZM4.90898 5.83735C4.12307 5.83735 3.47717 6.52008 3.47717 7.35072C3.47717 8.18155 4.12311 8.86409 4.90898 8.86409C5.69486 8.86409 6.3408 8.18151 6.3408 7.35072C6.3408 6.52004 5.69486 5.83735 4.90898 5.83735ZM8.99999 5.83735C8.21408 5.83735 7.56817 6.52008 7.56817 7.35072C7.56817 8.18155 8.21411 8.86409 8.99999 8.86409C9.78586 8.86409 10.4318 8.18151 10.4318 7.35072C10.4318 6.52004 9.78586 5.83735 8.99999 5.83735ZM13.091 5.83735C12.3051 5.83735 11.6592 6.52008 11.6592 7.35072C11.6592 8.18155 12.3051 8.86409 13.091 8.86409C13.8769 8.86409 14.5228 8.18151 14.5228 7.35072C14.5228 6.52004 13.8769 5.83735 13.091 5.83735ZM4.90898 6.70208C5.25271 6.70208 5.52267 6.98741 5.52267 7.35072C5.52267 7.71402 5.25272 7.99936 4.90898 7.99936C4.56525 7.99936 4.2953 7.71403 4.2953 7.35072C4.2953 6.98742 4.56525 6.70208 4.90898 6.70208ZM8.99999 6.70208C9.34371 6.70208 9.61367 6.98741 9.61367 7.35072C9.61367 7.71402 9.34372 7.99936 8.99999 7.99936C8.65625 7.99936 8.3863 7.71403 8.3863 7.35072C8.3863 6.98742 8.65625 6.70208 8.99999 6.70208ZM13.091 6.70208C13.4347 6.70208 13.7047 6.98741 13.7047 7.35072C13.7047 7.71402 13.4347 7.99936 13.091 7.99936C12.7473 7.99936 12.4773 7.71403 12.4773 7.35072C12.4773 6.98742 12.7473 6.70208 13.091 6.70208Z" fill="#717171"/>
</svg>
