<svg width="625" height="580" viewBox="0 0 625 580" fill="none" xmlns="http://www.w3.org/2000/svg">
<g clip-path="url(#clip0_114_23)">
<circle cx="138.474" cy="486.417" r="469.5" stroke="white"/>
<path d="M462.075 826.582C274.207 1005.3 -22.9718 997.886 -201.692 810.018C-380.412 622.15 -372.996 324.972 -185.128 146.252C2.71554 -32.4451 287.867 -8.13215 466.611 179.761C645.348 367.647 649.926 647.878 462.075 826.582Z" stroke="#0A6EFF"/>
<circle cx="138.474" cy="486.417" r="469.5" stroke="white"/>
<path d="M462.075 826.582C274.207 1005.3 -22.9719 997.886 -201.692 810.018C-380.412 622.15 -372.996 324.972 -185.128 146.252C2.71554 -32.4451 287.867 -8.13215 466.611 179.761C645.348 367.647 649.926 647.878 462.075 826.582Z" stroke="#0A6EFF"/>
</g>
<defs>
<clipPath id="clip0_114_23">
<rect width="625" height="580" fill="white"/>
</clipPath>
</defs>
</svg>
