<svg width="32" height="30" viewBox="0 0 32 30" fill="none" xmlns="http://www.w3.org/2000/svg">
<path fill-rule="evenodd" clip-rule="evenodd" d="M25.8468 30.0004C29.5923 26.9298 32 22.1479 32 16.7764C32 7.51104 24.8366 0 16 0C7.16344 0 0 7.51104 0 16.7764C0 22.1409 2.40137 26.9173 6.13848 29.9883C6.19738 29.9054 6.27409 29.8358 6.36671 29.7874L12.0797 26.7462C12.4424 26.5561 12.6541 26.2077 12.6541 25.7958V24.9404C12.6541 24.687 12.5634 24.4335 12.4122 24.2435C11.4449 23.0713 10.7798 21.3924 10.5985 20.8539C10.5681 20.7588 10.5078 20.6638 10.4473 20.6004C10.266 20.442 9.93346 20.0301 9.75213 19.0481C9.57081 18.0977 9.9031 17.5593 10.1148 17.3058C10.2356 17.1792 10.2961 17.0208 10.2961 16.8623V12.776C10.6587 10.4634 11.9586 9.38637 13.2282 8.84787C14.6792 8.24619 17.2182 8.24619 18.6389 8.81627C19.9688 9.32318 21.2988 10.4318 21.6919 12.776L21.6916 16.8623C21.6916 17.0208 21.7522 17.1792 21.873 17.3058C22.0845 17.5593 22.417 18.0978 22.2356 19.0482C22.0242 20.0303 21.7218 20.442 21.5405 20.6004C21.4799 20.6639 21.4194 20.7589 21.3893 20.8539C21.208 21.3607 20.5429 23.1031 19.5454 24.2751C19.3942 24.4336 19.3337 24.6552 19.3337 24.877V25.859C19.3337 26.2075 19.515 26.5241 19.8174 26.6826L25.5909 29.7869C25.6965 29.8423 25.7819 29.9157 25.8468 30.0004Z" fill="#222431"/>
</svg>
