<svg width="25" height="24" viewBox="0 0 25 24" fill="none" xmlns="http://www.w3.org/2000/svg">
<path fill-rule="evenodd" clip-rule="evenodd" d="M15.1845 1.65517L24.5801 19.0345C25.7732 21.2414 24.2818 24 21.8956 24H3.10438C0.718185 24 -0.773182 21.2414 0.419912 19.0345L9.81554 1.65517C11.0086 -0.551725 13.9914 -0.551723 15.1845 1.65517ZM13.3948 2.75862C12.9971 2.02299 12.0029 2.02299 11.6052 2.75862L2.20956 20.1379C1.81186 20.8736 2.30898 21.7931 3.10438 21.7931H21.8956C22.691 21.7931 23.1881 20.8736 22.7904 20.1379L13.3948 2.75862Z" fill="#1C85FE"/>
<path d="M11.2064 7.50354H13.0745L12.7604 15.9604H11.504L11.2064 7.50354ZM12.1487 19.9681C11.8401 19.9681 11.5811 19.8622 11.3717 19.6503C11.1623 19.4267 11.0576 19.156 11.0576 18.8382C11.0576 18.5204 11.1623 18.2555 11.3717 18.0437C11.5811 17.82 11.8401 17.7082 12.1487 17.7082C12.4573 17.7082 12.7108 17.82 12.9092 18.0437C13.1076 18.2555 13.2068 18.5204 13.2068 18.8382C13.2068 19.156 13.1021 19.4267 12.8927 19.6503C12.6943 19.8622 12.4463 19.9681 12.1487 19.9681Z" fill="#1C85FE"/>
</svg>
