<svg width="20" height="17" viewBox="0 0 20 17" fill="none" xmlns="http://www.w3.org/2000/svg">
<path d="M6.74255 4.76155C5.74452 4.76123 4.77994 5.11662 4.02678 5.76228C3.27341 6.40776 2.78228 7.30003 2.64373 8.27434C1.69923 8.27434 0.826399 8.7712 0.354189 9.57764C-0.118063 10.3841 -0.118063 11.3775 0.354189 12.1839C0.82644 12.9903 1.69927 13.487 2.64373 13.487C2.78228 14.4615 3.27345 15.3538 4.02678 15.9993C4.77998 16.6447 5.74452 17.0003 6.74255 17H13.1794C14.1766 16.9992 15.14 16.6432 15.8923 15.9978C16.6445 15.3524 17.135 14.4607 17.2735 13.487H17.3563C18.3008 13.487 19.1736 12.9903 19.6458 12.1839C20.118 11.3775 20.1181 10.384 19.6458 9.57764C19.1736 8.7712 18.3007 8.27434 17.3563 8.27434H17.2735C17.135 7.3008 16.6445 6.40917 15.8923 5.7637C15.14 5.11822 14.1766 4.76235 13.1794 4.76155H10.4208L10.4206 3.57841C11.0069 3.44292 11.4886 3.0333 11.7105 2.48155C11.9324 1.92997 11.8665 1.30614 11.534 0.811461C11.2012 0.31678 10.6441 0.013892 10.0423 0.000455514C9.44052 -0.0128244 8.87012 0.264944 8.51527 0.74444C8.16057 1.22395 8.06613 1.84413 8.26272 2.40518C8.45931 2.96607 8.92179 3.39673 9.50114 3.55797V4.76151L6.74255 4.76155ZM9.08053 1.81519C9.08053 1.57473 9.17739 1.34406 9.34977 1.17412C9.52231 1.00418 9.75611 0.908531 10 0.908531C10.2439 0.908531 10.4777 1.00418 10.6503 1.17412C10.8227 1.34407 10.9195 1.57473 10.9195 1.81519C10.9195 2.05565 10.8227 2.28616 10.6503 2.45626C10.4777 2.6262 10.2439 2.72169 10 2.72169C9.75611 2.72169 9.52231 2.6262 9.34977 2.45626C9.17739 2.28615 9.08053 2.05566 9.08053 1.81519ZM0.919584 10.8808C0.919424 10.4365 1.09566 10.0098 1.4106 9.69225C1.72554 9.37449 2.15415 9.19093 2.60461 9.18098V12.5806C2.15415 12.5705 1.72554 12.3869 1.4106 12.0693C1.09566 11.7515 0.91942 11.325 0.919584 10.8808ZM12.4898 16.0935H7.43233V14.9603C7.43233 14.7198 7.52919 14.4892 7.70157 14.3192C7.87411 14.1491 8.10791 14.0536 8.35182 14.0536H11.5701C11.814 14.0536 12.048 14.1491 12.2204 14.3192C12.3929 14.4892 12.4898 14.7198 12.4898 14.9603L12.4898 16.0935ZM19.0806 10.8808C19.0799 11.3313 18.8981 11.7634 18.575 12.082C18.2517 12.4007 17.8136 12.58 17.3564 12.5806H17.3173V9.18098H17.3564C17.8136 9.18161 18.2517 9.36088 18.575 9.67942C18.8981 9.99813 19.08 10.43 19.0806 10.8808ZM16.3978 8.8411V12.9206V12.9205C16.397 13.7223 16.0883 14.4939 15.534 15.0804C14.9794 15.667 14.2205 16.0249 13.4092 16.0821V14.9603C13.4092 14.4794 13.2155 14.0182 12.8706 13.6782C12.5257 13.3381 12.0579 13.1471 11.5701 13.1471H8.3518C7.86399 13.1471 7.39625 13.3381 7.0513 13.6782C6.70653 14.0182 6.51267 14.4794 6.51267 14.9603V16.0821C5.70158 16.0249 4.94246 15.667 4.38811 15.0804C3.83359 14.4939 3.52509 13.7223 3.52411 12.9205V8.84094C3.52411 7.99942 3.86326 7.19238 4.46685 6.59729C5.07042 6.0024 5.88906 5.66803 6.74264 5.66803H13.1794C14.033 5.66803 14.8516 6.00239 15.4552 6.59729C16.0588 7.19234 16.3978 7.99942 16.3978 8.84094V8.8411Z" fill="#717171"/>
<path d="M5.40137 9.52178C5.40137 10.0027 5.59508 10.4638 5.94 10.8039C6.28492 11.144 6.75269 11.3349 7.2405 11.3349C7.7283 11.3349 8.19604 11.144 8.54083 10.8039C8.88575 10.4639 9.07962 10.0027 9.07962 9.52178C9.07962 9.04086 8.88575 8.57972 8.54083 8.2398C8.19606 7.89975 7.7283 7.70862 7.2405 7.70862C6.75269 7.70862 6.28495 7.89975 5.94 8.2398C5.59507 8.5797 5.40137 9.04086 5.40137 9.52178ZM7.2405 8.6153C7.4844 8.6153 7.71821 8.71079 7.89074 8.88073C8.06313 9.05084 8.15998 9.28133 8.15998 9.5218C8.15998 9.76226 8.06313 9.99293 7.89074 10.1629C7.7182 10.3328 7.4844 10.4285 7.2405 10.4285C6.99659 10.4285 6.76262 10.3328 6.59025 10.1629C6.41787 9.99292 6.32085 9.76226 6.32085 9.5218C6.32085 9.28134 6.41787 9.05083 6.59025 8.88073C6.76263 8.71079 6.99659 8.6153 7.2405 8.6153Z" fill="#717171"/>
<path d="M12.7591 11.3349C13.2469 11.3349 13.7146 11.144 14.0595 10.8039C14.4045 10.4639 14.5982 10.0027 14.5982 9.52177C14.5982 9.04085 14.4045 8.57972 14.0595 8.2398C13.7146 7.89975 13.2469 7.70862 12.7591 7.70862C12.2712 7.70862 11.8035 7.89975 11.4587 8.2398C11.1138 8.5797 10.9199 9.04085 10.9199 9.52177C10.9199 10.0027 11.1138 10.4638 11.4587 10.8039C11.8035 11.144 12.2712 11.3349 12.7591 11.3349ZM12.7591 8.6153C13.003 8.6153 13.2369 8.71078 13.4093 8.88073C13.5817 9.05084 13.6787 9.28133 13.6787 9.5218C13.6787 9.76225 13.5817 9.99293 13.4093 10.1629C13.2369 10.3328 13.003 10.4285 12.7591 10.4285C12.5152 10.4285 12.2813 10.3328 12.1088 10.1629C11.9364 9.99292 11.8396 9.76226 11.8396 9.5218C11.8396 9.28134 11.9364 9.05083 12.1088 8.88073C12.2813 8.71078 12.5151 8.6153 12.7591 8.6153Z" fill="#717171"/>
</svg>
