<svg width="18" height="18" viewBox="0 0 18 18" fill="none" xmlns="http://www.w3.org/2000/svg">
<mask id="path-1-inside-1_0_1215" fill="white">
<path d="M1.36688 10.4739C0.491665 9.62262 0 8.46827 0 7.26462C0 6.06097 0.491665 4.90661 1.36688 4.05538L3.29011 2.18541C3.34252 2.13472 3.40893 2.09984 3.48135 2.08506C3.53482 2.07378 3.5903 2.07378 3.64377 2.08506L4.25933 2.21524C4.33894 2.23222 4.42202 2.20836 4.47923 2.15196C4.54457 2.0905 4.57284 2.00052 4.55377 1.91404L4.42375 1.32473V1.32486C4.39681 1.20168 4.43562 1.0737 4.52697 0.984626L5.28013 0.252321H5.28027C5.44629 0.0907632 5.67153 0 5.90637 0C6.14121 0 6.36646 0.0907632 6.53247 0.252321L8.98339 2.63718C9.14902 2.79886 9.24196 3.01774 9.24196 3.24594C9.24196 3.47414 9.14901 3.69302 8.98339 3.8547L8.23207 4.58701C8.14032 4.67595 8.0087 4.71368 7.88214 4.68736L7.18244 4.53877C7.14256 4.53086 7.10163 4.54603 7.07736 4.5778C7.01001 4.69008 6.98121 4.82026 6.99508 4.94953C7.04721 5.18395 7.17684 5.39544 7.36408 5.55182L8.11155 6.17458V6.17445C8.20263 6.23384 8.2629 6.32836 8.27744 6.4339C8.29198 6.53958 8.25917 6.64616 8.18743 6.72655C8.11568 6.80707 8.0118 6.85387 7.90231 6.85491C7.7927 6.85595 7.68788 6.81122 7.61454 6.73212L6.86707 6.10936V6.10949C6.55275 5.84705 6.33526 5.49193 6.24762 5.09826C6.18641 4.75972 6.26243 4.41119 6.45979 4.12607C6.55887 3.99394 6.69516 3.89242 6.85225 3.83407C7.00934 3.77572 7.18043 3.76289 7.345 3.79712L7.84015 3.89929L8.44625 3.30998L8.44612 3.31011C8.49332 3.26369 8.49332 3.18913 8.44612 3.14271L5.98946 0.778371C5.96693 0.75581 5.93585 0.743233 5.90345 0.743233C5.87118 0.743233 5.84011 0.75581 5.81744 0.778371L5.21335 1.36755L5.29937 1.75797C5.37684 2.09056 5.27363 2.43856 5.02599 2.67997C4.78502 2.91984 4.43362 3.02176 4.09691 2.9494L3.68591 2.86201L1.90978 4.58895C1.20567 5.27303 0.79679 6.19284 0.766919 7.16025C0.737047 8.12766 1.08844 9.06962 1.74919 9.79353L2.25195 9.4218H2.25208C2.09406 9.0188 2.05965 8.57992 2.153 8.1584C2.24635 7.73675 2.46332 7.35048 2.77778 7.0463C2.81978 7.00546 2.86312 6.96643 2.9078 6.92922C3.3404 6.58225 3.8958 6.41459 4.45445 6.46219C5.01306 6.50978 5.53009 6.76897 5.89401 7.18388L6.48662 7.84372C6.60757 7.99918 6.5845 8.2191 6.43368 8.34759C6.28299 8.47609 6.05576 8.46947 5.91306 8.33255L5.32045 7.67271C5.09041 7.40431 4.76116 7.23433 4.40366 7.19957C4.04612 7.16482 3.68876 7.26803 3.40869 7.48677C3.37815 7.51153 3.34881 7.53759 3.32081 7.56483L3.32067 7.56496C3.09157 7.78564 2.94009 8.07115 2.88793 8.38064C2.83577 8.69014 2.88553 9.00769 3.03009 9.28801C3.08236 9.38953 3.09583 9.50584 3.06809 9.61605C3.04049 9.72639 2.97355 9.82351 2.87913 9.89028L2.00928 10.5204C1.91433 10.5886 1.79738 10.6217 1.67963 10.6135C1.56188 10.6053 1.45092 10.5565 1.36691 10.4758L1.36688 10.4739ZM14.6516 15.961C14.3213 15.9543 14.0086 15.815 13.7875 15.5763L10.9638 12.4851C10.8234 12.331 10.5811 12.3169 10.4228 12.4534C10.2644 12.59 10.2499 12.8256 10.3903 12.9795L13.2159 16.0633C13.5773 16.455 14.0894 16.6838 14.6306 16.6953H14.6822C15.2173 16.6942 15.729 16.4822 16.1004 16.1076C16.4717 15.7331 16.6708 15.228 16.6521 14.7081C16.6334 14.1882 16.3986 13.6979 16.0013 13.3494L12.8201 10.6133C12.6617 10.4767 12.4196 10.4909 12.2791 10.6448C12.1387 10.7988 12.1532 11.0343 12.3117 11.1708L15.4966 13.9126C15.7402 14.1292 15.8822 14.4331 15.8898 14.7539C15.8974 15.0747 15.7699 15.3845 15.5368 15.6119C15.3037 15.839 14.9854 15.9639 14.6555 15.9574L14.6516 15.961ZM17.9819 4.59238C18.0861 5.62212 17.7374 6.64673 17.0221 7.41276C16.3067 8.17879 15.2915 8.61485 14.2272 8.61302C14.1297 8.61302 14.0359 8.61302 13.9347 8.60187C13.458 8.56232 12.9878 8.72972 12.65 9.05917L8.80527 12.8027C8.46855 13.1324 8.29667 13.5887 8.33508 14.0518C8.41722 15.071 8.05757 16.0772 7.34304 16.8269C6.62839 17.5768 5.62399 18.0021 4.57262 18C4.4502 18 4.32605 18 4.2055 17.9833H4.20563C4.06601 17.9704 3.93318 17.9188 3.82276 17.8349C3.71221 17.7509 3.62887 17.6378 3.58232 17.5092C3.53338 17.3789 3.52392 17.2376 3.55512 17.1022C3.58633 16.9667 3.65687 16.8429 3.75822 16.7453L4.86131 15.6727C4.97133 15.5657 5.03307 15.4207 5.03307 15.2694C5.03307 15.1182 4.97132 14.9731 4.86131 14.866L4.02583 14.05C3.91395 13.9466 3.76539 13.8889 3.61098 13.8889C3.45669 13.8889 3.30813 13.9466 3.19626 14.05L2.09317 15.1226C1.95982 15.2553 1.77926 15.3337 1.58857 15.3412C1.39774 15.3487 1.2113 15.285 1.06727 15.1632C0.92324 15.0413 0.832701 14.8705 0.814164 14.6857C0.71228 13.6578 1.0614 12.6359 1.77578 11.8717C2.49003 11.1075 3.50299 10.672 4.56501 10.6725C4.6625 10.6725 4.75625 10.6725 4.85746 10.6837H4.85759C5.33407 10.7225 5.80402 10.5553 6.1422 10.2265L9.99065 6.47533C10.3275 6.14561 10.4992 5.68932 10.4608 5.22618C10.374 4.14571 10.7838 3.08326 11.5801 2.3249C12.3763 1.56637 13.4772 1.18987 14.5864 1.29668C14.7264 1.30913 14.8596 1.36047 14.9705 1.44449C15.0813 1.52851 15.165 1.64171 15.2116 1.77059C15.2606 1.90103 15.27 2.04223 15.2389 2.17773C15.2077 2.3131 15.1371 2.43706 15.0357 2.53456L13.9327 3.60905C13.8231 3.71628 13.7617 3.86124 13.7617 4.01242C13.7617 4.16347 13.8231 4.30843 13.9327 4.41565L14.77 5.22977V5.2299C14.8819 5.33324 15.0304 5.39094 15.1849 5.39094C15.3393 5.39094 15.4877 5.33324 15.5997 5.2299L16.7028 4.15737H16.7027C16.8359 4.02459 17.0162 3.94628 17.2068 3.9385C17.3973 3.93085 17.5837 3.99425 17.7278 4.11574C17.8719 4.23724 17.9627 4.40774 17.9817 4.59223L17.9819 4.59238ZM17.2172 4.69831L16.1389 5.75232C15.8854 5.99881 15.5416 6.13743 15.183 6.13743C14.8246 6.13743 14.4807 5.99882 14.2272 5.75232L13.3937 4.93999C13.1406 4.69324 12.9984 4.35911 12.9984 4.01058C12.9984 3.66219 13.1406 3.32793 13.3937 3.08117L14.472 2.03274L14.4719 2.03287C13.5933 1.95922 12.7258 2.26496 12.1 2.86893C11.474 3.47288 11.1529 4.31386 11.2219 5.16872C11.2763 5.84851 11.0221 6.51745 10.526 6.99951L6.68132 10.7434C6.18378 11.2275 5.49206 11.4736 4.79061 11.4163C3.91274 11.3515 3.04995 11.6647 2.43051 12.2731C1.81106 12.8813 1.4977 13.7233 1.57305 14.5762L2.64933 13.5204C2.90284 13.2739 3.24676 13.1353 3.60522 13.1353C3.96381 13.1353 4.30772 13.2739 4.5611 13.5204L5.39842 14.3345H5.39855C5.65166 14.5813 5.79367 14.9155 5.79367 15.2639C5.79367 15.6125 5.65165 15.9467 5.39855 16.1933L4.32025 17.2418C4.40439 17.2418 4.48854 17.2511 4.57255 17.2511C5.40868 17.2514 6.20708 16.9126 6.77528 16.3163C7.34362 15.7199 7.63035 14.9202 7.56648 14.1097C7.51047 13.4298 7.76331 12.76 8.25847 12.2768L12.109 8.53493C12.6052 8.05234 13.2945 7.80638 13.9939 7.86201H14.2272C15.0671 7.86188 15.8682 7.51959 16.4365 6.91833C17.0047 6.31711 17.2878 5.51191 17.2172 4.69828L17.2172 4.69831Z"/>
</mask>
<path d="M1.36688 10.4739C0.491665 9.62262 0 8.46827 0 7.26462C0 6.06097 0.491665 4.90661 1.36688 4.05538L3.29011 2.18541C3.34252 2.13472 3.40893 2.09984 3.48135 2.08506C3.53482 2.07378 3.5903 2.07378 3.64377 2.08506L4.25933 2.21524C4.33894 2.23222 4.42202 2.20836 4.47923 2.15196C4.54457 2.0905 4.57284 2.00052 4.55377 1.91404L4.42375 1.32473V1.32486C4.39681 1.20168 4.43562 1.0737 4.52697 0.984626L5.28013 0.252321H5.28027C5.44629 0.0907632 5.67153 0 5.90637 0C6.14121 0 6.36646 0.0907632 6.53247 0.252321L8.98339 2.63718C9.14902 2.79886 9.24196 3.01774 9.24196 3.24594C9.24196 3.47414 9.14901 3.69302 8.98339 3.8547L8.23207 4.58701C8.14032 4.67595 8.0087 4.71368 7.88214 4.68736L7.18244 4.53877C7.14256 4.53086 7.10163 4.54603 7.07736 4.5778C7.01001 4.69008 6.98121 4.82026 6.99508 4.94953C7.04721 5.18395 7.17684 5.39544 7.36408 5.55182L8.11155 6.17458V6.17445C8.20263 6.23384 8.2629 6.32836 8.27744 6.4339C8.29198 6.53958 8.25917 6.64616 8.18743 6.72655C8.11568 6.80707 8.0118 6.85387 7.90231 6.85491C7.7927 6.85595 7.68788 6.81122 7.61454 6.73212L6.86707 6.10936V6.10949C6.55275 5.84705 6.33526 5.49193 6.24762 5.09826C6.18641 4.75972 6.26243 4.41119 6.45979 4.12607C6.55887 3.99394 6.69516 3.89242 6.85225 3.83407C7.00934 3.77572 7.18043 3.76289 7.345 3.79712L7.84015 3.89929L8.44625 3.30998L8.44612 3.31011C8.49332 3.26369 8.49332 3.18913 8.44612 3.14271L5.98946 0.778371C5.96693 0.75581 5.93585 0.743233 5.90345 0.743233C5.87118 0.743233 5.84011 0.75581 5.81744 0.778371L5.21335 1.36755L5.29937 1.75797C5.37684 2.09056 5.27363 2.43856 5.02599 2.67997C4.78502 2.91984 4.43362 3.02176 4.09691 2.9494L3.68591 2.86201L1.90978 4.58895C1.20567 5.27303 0.79679 6.19284 0.766919 7.16025C0.737047 8.12766 1.08844 9.06962 1.74919 9.79353L2.25195 9.4218H2.25208C2.09406 9.0188 2.05965 8.57992 2.153 8.1584C2.24635 7.73675 2.46332 7.35048 2.77778 7.0463C2.81978 7.00546 2.86312 6.96643 2.9078 6.92922C3.3404 6.58225 3.8958 6.41459 4.45445 6.46219C5.01306 6.50978 5.53009 6.76897 5.89401 7.18388L6.48662 7.84372C6.60757 7.99918 6.5845 8.2191 6.43368 8.34759C6.28299 8.47609 6.05576 8.46947 5.91306 8.33255L5.32045 7.67271C5.09041 7.40431 4.76116 7.23433 4.40366 7.19957C4.04612 7.16482 3.68876 7.26803 3.40869 7.48677C3.37815 7.51153 3.34881 7.53759 3.32081 7.56483L3.32067 7.56496C3.09157 7.78564 2.94009 8.07115 2.88793 8.38064C2.83577 8.69014 2.88553 9.00769 3.03009 9.28801C3.08236 9.38953 3.09583 9.50584 3.06809 9.61605C3.04049 9.72639 2.97355 9.82351 2.87913 9.89028L2.00928 10.5204C1.91433 10.5886 1.79738 10.6217 1.67963 10.6135C1.56188 10.6053 1.45092 10.5565 1.36691 10.4758L1.36688 10.4739ZM14.6516 15.961C14.3213 15.9543 14.0086 15.815 13.7875 15.5763L10.9638 12.4851C10.8234 12.331 10.5811 12.3169 10.4228 12.4534C10.2644 12.59 10.2499 12.8256 10.3903 12.9795L13.2159 16.0633C13.5773 16.455 14.0894 16.6838 14.6306 16.6953H14.6822C15.2173 16.6942 15.729 16.4822 16.1004 16.1076C16.4717 15.7331 16.6708 15.228 16.6521 14.7081C16.6334 14.1882 16.3986 13.6979 16.0013 13.3494L12.8201 10.6133C12.6617 10.4767 12.4196 10.4909 12.2791 10.6448C12.1387 10.7988 12.1532 11.0343 12.3117 11.1708L15.4966 13.9126C15.7402 14.1292 15.8822 14.4331 15.8898 14.7539C15.8974 15.0747 15.7699 15.3845 15.5368 15.6119C15.3037 15.839 14.9854 15.9639 14.6555 15.9574L14.6516 15.961ZM17.9819 4.59238C18.0861 5.62212 17.7374 6.64673 17.0221 7.41276C16.3067 8.17879 15.2915 8.61485 14.2272 8.61302C14.1297 8.61302 14.0359 8.61302 13.9347 8.60187C13.458 8.56232 12.9878 8.72972 12.65 9.05917L8.80527 12.8027C8.46855 13.1324 8.29667 13.5887 8.33508 14.0518C8.41722 15.071 8.05757 16.0772 7.34304 16.8269C6.62839 17.5768 5.62399 18.0021 4.57262 18C4.4502 18 4.32605 18 4.2055 17.9833H4.20563C4.06601 17.9704 3.93318 17.9188 3.82276 17.8349C3.71221 17.7509 3.62887 17.6378 3.58232 17.5092C3.53338 17.3789 3.52392 17.2376 3.55512 17.1022C3.58633 16.9667 3.65687 16.8429 3.75822 16.7453L4.86131 15.6727C4.97133 15.5657 5.03307 15.4207 5.03307 15.2694C5.03307 15.1182 4.97132 14.9731 4.86131 14.866L4.02583 14.05C3.91395 13.9466 3.76539 13.8889 3.61098 13.8889C3.45669 13.8889 3.30813 13.9466 3.19626 14.05L2.09317 15.1226C1.95982 15.2553 1.77926 15.3337 1.58857 15.3412C1.39774 15.3487 1.2113 15.285 1.06727 15.1632C0.92324 15.0413 0.832701 14.8705 0.814164 14.6857C0.71228 13.6578 1.0614 12.6359 1.77578 11.8717C2.49003 11.1075 3.50299 10.672 4.56501 10.6725C4.6625 10.6725 4.75625 10.6725 4.85746 10.6837H4.85759C5.33407 10.7225 5.80402 10.5553 6.1422 10.2265L9.99065 6.47533C10.3275 6.14561 10.4992 5.68932 10.4608 5.22618C10.374 4.14571 10.7838 3.08326 11.5801 2.3249C12.3763 1.56637 13.4772 1.18987 14.5864 1.29668C14.7264 1.30913 14.8596 1.36047 14.9705 1.44449C15.0813 1.52851 15.165 1.64171 15.2116 1.77059C15.2606 1.90103 15.27 2.04223 15.2389 2.17773C15.2077 2.3131 15.1371 2.43706 15.0357 2.53456L13.9327 3.60905C13.8231 3.71628 13.7617 3.86124 13.7617 4.01242C13.7617 4.16347 13.8231 4.30843 13.9327 4.41565L14.77 5.22977V5.2299C14.8819 5.33324 15.0304 5.39094 15.1849 5.39094C15.3393 5.39094 15.4877 5.33324 15.5997 5.2299L16.7028 4.15737H16.7027C16.8359 4.02459 17.0162 3.94628 17.2068 3.9385C17.3973 3.93085 17.5837 3.99425 17.7278 4.11574C17.8719 4.23724 17.9627 4.40774 17.9817 4.59223L17.9819 4.59238ZM17.2172 4.69831L16.1389 5.75232C15.8854 5.99881 15.5416 6.13743 15.183 6.13743C14.8246 6.13743 14.4807 5.99882 14.2272 5.75232L13.3937 4.93999C13.1406 4.69324 12.9984 4.35911 12.9984 4.01058C12.9984 3.66219 13.1406 3.32793 13.3937 3.08117L14.472 2.03274L14.4719 2.03287C13.5933 1.95922 12.7258 2.26496 12.1 2.86893C11.474 3.47288 11.1529 4.31386 11.2219 5.16872C11.2763 5.84851 11.0221 6.51745 10.526 6.99951L6.68132 10.7434C6.18378 11.2275 5.49206 11.4736 4.79061 11.4163C3.91274 11.3515 3.04995 11.6647 2.43051 12.2731C1.81106 12.8813 1.4977 13.7233 1.57305 14.5762L2.64933 13.5204C2.90284 13.2739 3.24676 13.1353 3.60522 13.1353C3.96381 13.1353 4.30772 13.2739 4.5611 13.5204L5.39842 14.3345H5.39855C5.65166 14.5813 5.79367 14.9155 5.79367 15.2639C5.79367 15.6125 5.65165 15.9467 5.39855 16.1933L4.32025 17.2418C4.40439 17.2418 4.48854 17.2511 4.57255 17.2511C5.40868 17.2514 6.20708 16.9126 6.77528 16.3163C7.34362 15.7199 7.63035 14.9202 7.56648 14.1097C7.51047 13.4298 7.76331 12.76 8.25847 12.2768L12.109 8.53493C12.6052 8.05234 13.2945 7.80638 13.9939 7.86201H14.2272C15.0671 7.86188 15.8682 7.51959 16.4365 6.91833C17.0047 6.31711 17.2878 5.51191 17.2172 4.69828L17.2172 4.69831Z" fill="#717171" stroke="#717171" stroke-width="2" mask="url(#path-1-inside-1_0_1215)"/>
</svg>
