<svg width="18" height="18" viewBox="0 0 18 18" fill="none" xmlns="http://www.w3.org/2000/svg">
<path fill-rule="evenodd" clip-rule="evenodd" d="M9.18678 1.78765C9.07888 1.69798 8.92102 1.69798 8.81312 1.78765L1.84532 7.57337C1.7798 7.62771 1.74189 7.70817 1.74189 7.79284V15.9931C1.74189 16.1515 1.87176 16.2798 2.03215 16.2798H5.51605C5.67645 16.2798 5.80631 16.1515 5.80631 15.9931V12.5522C5.80631 11.4436 6.71616 10.545 7.83872 10.545H10.1612C11.2837 10.545 12.1936 11.4436 12.1936 12.5522V15.9931C12.1936 16.1515 12.3235 16.2798 12.4838 16.2798H15.9677C16.1281 16.2798 16.258 16.1515 16.258 15.9931V7.79284C16.258 7.70816 16.2203 7.62771 16.1546 7.57337L9.18678 1.78765ZM7.69214 0.470796C8.4482 -0.156932 9.5517 -0.156932 10.3078 0.470796L17.2756 6.25602C17.7348 6.63737 18 7.19978 18 7.79256V15.9928C18 17.1014 17.0902 18 15.9678 18H12.4839C11.3615 18 10.4517 17.1014 10.4517 15.9928V12.5519C10.4517 12.3935 10.3216 12.2652 10.1612 12.2652H7.83877C7.67837 12.2652 7.54831 12.3935 7.54831 12.5519V15.9928C7.54831 17.1014 6.63847 18 5.51611 18H2.03221C0.909844 18 0 17.1014 0 15.9928V7.79256C0 7.19978 0.265179 6.63738 0.724402 6.25602L7.69214 0.470796Z" fill="#717171"/>
</svg>
