<svg width="10" height="10" viewBox="0 0 10 10" fill="none" xmlns="http://www.w3.org/2000/svg">
<circle cx="5" cy="5" r="4.5" stroke="#6191EF"/>
<path d="M4.41634 6.39911H5.19134C5.19134 5.34077 6.72467 5.02411 6.72467 3.74077C6.72467 2.6991 5.84967 2.16577 4.92467 2.16577C4.12467 2.16577 3.37467 2.5491 3.08301 3.35744L3.74134 3.72411C3.91634 3.17411 4.35801 2.91577 4.91634 2.91577C5.49967 2.91577 5.94967 3.19077 5.94967 3.77411C5.94967 4.76577 4.41634 5.05744 4.41634 6.39911ZM4.79967 8.1991C5.10801 8.1991 5.34134 7.95744 5.34134 7.65744C5.34134 7.35744 5.10801 7.11577 4.79967 7.11577C4.49967 7.11577 4.25801 7.35744 4.25801 7.65744C4.25801 7.95744 4.49967 8.1991 4.79967 8.1991Z" fill="#6191EF"/>
</svg>
