<svg width="18" height="18" viewBox="0 0 18 18" fill="none" xmlns="http://www.w3.org/2000/svg">
<path d="M9 0C8.55226 0 8.11326 0.0326737 7.6832 0.0958811C7.52425 0.119994 7.39427 0.234995 7.35089 0.389803L6.82667 2.20526C6.44844 2.32668 6.08102 2.47321 5.73359 2.65271L4.07808 1.74496C3.93868 1.66649 3.76646 1.67647 3.63706 1.7705C3.28835 2.02989 2.95019 2.31682 2.63343 2.63343C2.31682 2.95018 2.02991 3.28834 1.7705 3.63706C1.67647 3.76647 1.66648 3.93868 1.74496 4.07808L2.65271 5.73359C2.47321 6.08101 2.32668 6.4484 2.20526 6.82667L0.389803 7.35089C0.234995 7.39427 0.119996 7.52425 0.0958811 7.6832C0.0326726 8.11322 0 8.55226 0 9C0 9.44774 0.0326737 9.88675 0.0958811 10.3168C0.119994 10.4758 0.234995 10.6057 0.389803 10.6491L2.20526 11.1733C2.32668 11.5516 2.47321 11.919 2.65271 12.2664L1.74496 13.9219C1.66649 14.0613 1.67647 14.2335 1.7705 14.3629C2.02989 14.7117 2.31682 15.0498 2.63343 15.3666C2.95018 15.6832 3.28834 15.9701 3.63706 16.2295C3.76647 16.3235 3.93868 16.3335 4.07808 16.255L5.73359 15.3473C6.08101 15.5268 6.4484 15.6733 6.82667 15.7947L7.35089 17.6102C7.39427 17.765 7.52425 17.88 7.6832 17.9041C8.11322 17.9673 8.55226 18 9 18C9.44774 18 9.88675 17.9673 10.3168 17.9041C10.4758 17.88 10.6057 17.765 10.6491 17.6102L11.1733 15.7947C11.5516 15.6733 11.919 15.5268 12.2664 15.3473L13.9219 16.255C14.0613 16.3335 14.2335 16.3235 14.3629 16.2295C14.7117 15.9701 15.0498 15.6833 15.3666 15.3666C15.6832 15.0498 15.9701 14.7117 16.2295 14.3629C16.3235 14.2335 16.3335 14.0613 16.255 13.9219L15.3473 12.2664C15.5268 11.919 15.6733 11.5516 15.7947 11.1733L17.6102 10.6491C17.765 10.6057 17.88 10.4758 17.9041 10.3168C17.9673 9.88678 18 9.44774 18 9C18 8.55226 17.9673 8.11325 17.9041 7.6832C17.88 7.52425 17.765 7.39427 17.6102 7.35089L15.7947 6.82667C15.6733 6.44844 15.5268 6.08102 15.3473 5.73359L16.255 4.07808C16.3335 3.93868 16.3235 3.76646 16.2295 3.63706C15.9701 3.28835 15.6832 2.95018 15.3666 2.63343C15.0498 2.31682 14.7117 2.02991 14.3629 1.7705C14.2335 1.67647 14.0613 1.66648 13.9219 1.74496L12.2664 2.65271C11.919 2.47321 11.5516 2.32668 11.1733 2.20526L10.6491 0.389803C10.6057 0.234995 10.4758 0.119996 10.3168 0.0958811C9.88678 0.0326726 9.44774 0 9 0ZM9 0.818113C9.3206 0.818113 9.63508 0.852356 9.94595 0.888455L10.451 2.61431C10.4898 2.75043 10.5961 2.85673 10.7323 2.89554C11.2108 3.03094 11.6675 3.22599 12.0937 3.4644C12.217 3.53274 12.3668 3.53274 12.4901 3.4644L14.0689 2.59504C14.3148 2.78994 14.5577 2.98798 14.7848 3.21514C15.012 3.4423 15.21 3.68512 15.4049 3.93113L14.5356 5.5099C14.4672 5.63317 14.4672 5.78299 14.5356 5.90628C14.774 6.33247 14.969 6.78919 15.1044 7.26772C15.1432 7.40384 15.2495 7.51013 15.3857 7.54894L17.1115 8.05402C17.1476 8.36492 17.1819 8.67939 17.1819 8.99998C17.1819 9.32057 17.1476 9.63506 17.1115 9.94593L15.3857 10.451C15.2495 10.4898 15.1432 10.5961 15.1044 10.7322C14.969 11.2108 14.774 11.6675 14.5356 12.0937C14.4672 12.217 14.4672 12.3668 14.5356 12.4901L15.4049 14.0688C15.21 14.3148 15.012 14.5577 14.7848 14.7848C14.5577 15.012 14.3149 15.21 14.0689 15.4049L12.4901 14.5356C12.3668 14.4672 12.217 14.4672 12.0937 14.5356C11.6675 14.774 11.2108 14.969 10.7323 15.1044C10.5961 15.1432 10.4898 15.2495 10.451 15.3856L9.94595 17.1115C9.63505 17.1476 9.32059 17.1818 9 17.1818C8.67941 17.1818 8.36492 17.1476 8.05405 17.1115L7.54896 15.3856C7.51015 15.2495 7.40386 15.1432 7.26774 15.1044C6.78917 14.969 6.33249 14.774 5.9063 14.5356C5.78303 14.4672 5.63321 14.4672 5.50992 14.5356L3.93115 15.4049C3.68517 15.21 3.44232 15.012 3.21516 14.7848C2.98801 14.5577 2.78996 14.3148 2.59506 14.0688L3.46442 12.4901C3.53276 12.3668 3.53276 12.217 3.46442 12.0937C3.226 11.6675 3.03096 11.2108 2.89556 10.7322C2.85675 10.5961 2.75045 10.4898 2.61434 10.451L0.888477 9.94593C0.852379 9.63503 0.818135 9.32057 0.818135 8.99998C0.818135 8.67939 0.852379 8.3649 0.888477 8.05402L2.61434 7.54894C2.75046 7.51013 2.85675 7.40383 2.89556 7.26772C3.03096 6.78915 3.22601 6.33247 3.46442 5.90628C3.53276 5.783 3.53276 5.63319 3.46442 5.5099L2.59506 3.93113C2.78996 3.68514 2.98801 3.4423 3.21516 3.21514C3.44232 2.98798 3.68515 2.78994 3.93115 2.59504L5.50992 3.4644C5.63319 3.53274 5.78301 3.53274 5.9063 3.4644C6.33249 3.22598 6.78921 3.03094 7.26774 2.89554C7.40386 2.85673 7.51015 2.75043 7.54896 2.61431L8.05405 0.888455C8.36495 0.852357 8.67941 0.818113 9 0.818113ZM9 4.90904C6.7455 4.90904 4.90907 6.74547 4.90907 8.99997C4.90907 11.2545 6.7455 13.0909 9 13.0909C11.2545 13.0909 13.0909 11.2545 13.0909 8.99997C13.0909 6.74547 11.2545 4.90904 9 4.90904ZM9 5.72715C10.8123 5.72715 12.2728 7.18761 12.2728 8.99997C12.2728 10.8123 10.8124 12.2728 9 12.2728C7.18765 12.2728 5.72718 10.8123 5.72718 8.99997C5.72718 7.18761 7.18765 5.72715 9 5.72715Z" fill="#717171"/>
</svg>
