<svg width="18" height="16" viewBox="0 0 18 16" fill="none" xmlns="http://www.w3.org/2000/svg">
<path d="M17.9924 6.55994C17.9671 6.21965 17.8442 5.89482 17.6392 5.62723C17.4343 5.35964 17.1567 5.16162 16.8421 5.0582L2.16743 0.0741435C1.72202 -0.064881 1.2408 -0.00673483 0.838272 0.234606C0.43577 0.475925 0.147896 0.878849 0.0432081 1.34778C-0.0615879 1.81661 0.0261761 2.30924 0.285463 2.70875L3.59436 7.55177L3.59443 7.55165C3.65123 7.63542 3.68555 7.7332 3.69426 7.83509C3.70285 7.93686 3.6853 8.03935 3.64342 8.13204L1.19013 13.5054C1.03199 13.835 0.98052 14.2083 1.04353 14.5705C1.10642 14.9326 1.28052 15.264 1.53972 15.5159L1.62696 15.5916C1.8825 15.8166 2.19832 15.9559 2.53226 15.9912C2.8662 16.0264 3.20272 15.9558 3.49704 15.7889L17.1072 8.24118C17.3998 8.08396 17.6404 7.83987 17.7983 7.54041C17.9559 7.24095 18.0236 6.89938 17.9927 6.55991L17.9924 6.55994ZM16.5767 7.22641L2.97053 14.7693C2.83135 14.8445 2.66794 14.8561 2.51995 14.8012C2.37196 14.7464 2.25292 14.6299 2.19179 14.4803C2.13054 14.3305 2.13263 14.161 2.19755 14.0131L4.64692 8.64462C4.68634 8.54606 4.71676 8.44383 4.73779 8.33937L9.26745 7.93421C9.45593 7.90286 9.61619 7.77482 9.69308 7.59425C9.77007 7.41356 9.75323 7.20501 9.64839 7.03994C9.54358 6.87506 9.36503 6.77635 9.17416 6.77777L4.64934 7.18715C4.61101 7.08817 4.5639 6.99297 4.50859 6.90289L1.18593 2.05649C1.09717 1.92249 1.06665 1.75598 1.10183 1.59751C1.13692 1.43915 1.23459 1.3031 1.37111 1.22249C1.50764 1.14187 1.6705 1.12392 1.82021 1.17306L16.4862 6.15792C16.5975 6.18658 16.6975 6.24995 16.7723 6.33951C16.8475 6.42906 16.894 6.54048 16.9055 6.65836C16.9149 6.77665 16.8882 6.8952 16.8292 6.99697C16.7703 7.09886 16.6819 7.17915 16.5766 7.22649L16.5767 7.22641Z" fill="#717171"/>
</svg>
