<svg width="150" height="43" viewBox="0 0 150 43" fill="none" xmlns="http://www.w3.org/2000/svg">
<path fill-rule="evenodd" clip-rule="evenodd" d="M33.4154 21.5791L33.3967 42.4147L17.6827 34.2771L21.5793 27.064L26.3805 29.5503L26.331 17.6508L33.4236 12.3419V12.352L42.3184 16.9582L35.053 22.4273L33.4154 21.5791ZM0 25.12L15.485 33.139L19.3816 25.9259L14.5159 23.4062L20.9255 18.6394L20.8908 18.5871L33.4264 9.20407L33.4347 0L0 25.12Z" fill="url(#paint0_linear_0_1369)"/>
<path d="M52.2278 18.4755H55.3764V29.5519H62.1984V32.126H52.2278V18.4755ZM75.8544 26.9193C75.8544 26.9583 75.8348 27.2313 75.7963 27.7384H67.8856C68.028 28.3884 68.3648 28.9019 68.8966 29.2789C69.4277 29.6559 70.0884 29.8444 70.8786 29.8444C71.4232 29.8444 71.9024 29.7664 72.3168 29.6104C72.7446 29.4414 73.1401 29.1814 73.5025 28.8304L75.1161 30.5855C74.1308 31.7165 72.6927 32.282 70.801 32.282C69.622 32.282 68.5787 32.0545 67.6717 31.5995C66.7648 31.1315 66.0651 30.488 65.5727 29.6689C65.0804 28.8499 64.8342 27.9204 64.8342 26.8803C64.8342 25.8533 65.0739 24.9303 65.5533 24.1112C66.0457 23.2792 66.713 22.6357 67.5549 22.1807C68.4107 21.7126 69.3629 21.4786 70.4123 21.4786C71.4361 21.4786 72.3627 21.6996 73.1914 22.1417C74.0208 22.5837 74.6686 23.2207 75.135 24.0527C75.6148 24.8718 75.8544 25.8273 75.8544 26.9193ZM70.4319 23.7797C69.7449 23.7797 69.1685 23.9747 68.7022 24.3647C68.2352 24.7547 67.9504 25.2878 67.8465 25.9638H72.997C72.8938 25.3008 72.6083 24.7742 72.142 24.3842C71.6756 23.9812 71.1054 23.7797 70.4319 23.7797ZM83.7496 21.4786C85.3692 21.4786 86.613 21.8686 87.4809 22.6487C88.3494 23.4157 88.7833 24.5792 88.7833 26.1393V32.126H85.9456V30.8195C85.3753 31.7945 84.3131 32.282 82.7582 32.282C81.9551 32.282 81.2553 32.1455 80.6594 31.8725C80.0763 31.5995 79.6289 31.2225 79.3178 30.7415C79.0073 30.2604 78.8514 29.7144 78.8514 29.1034C78.8514 28.1284 79.2145 27.3613 79.94 26.8023C80.6783 26.2433 81.812 25.9638 83.3413 25.9638H85.7512C85.7512 25.3008 85.5508 24.7938 85.1486 24.4427C84.747 24.0787 84.1444 23.8967 83.3413 23.8967C82.7838 23.8967 82.2332 23.9877 81.6892 24.1697C81.1581 24.3387 80.7046 24.5727 80.3287 24.8718L79.2402 22.7462C79.8104 22.3432 80.4907 22.0312 81.2809 21.8101C82.0847 21.5891 82.9073 21.4786 83.7496 21.4786ZM83.5161 30.2344C84.0344 30.2344 84.4946 30.1174 84.8962 29.8834C85.2977 29.6364 85.5832 29.2789 85.7512 28.8109V27.7384H83.672C82.4275 27.7384 81.806 28.1479 81.806 28.9669C81.806 29.3569 81.9551 29.6689 82.2527 29.9029C82.5638 30.1239 82.985 30.2344 83.5161 30.2344ZM104.236 17.6565V32.126H101.34V30.917C100.589 31.827 99.5001 32.282 98.0748 32.282C97.0902 32.282 96.196 32.061 95.3923 31.619C94.602 31.177 93.9805 30.5465 93.5269 29.7274C93.0734 28.9084 92.8467 27.9594 92.8467 26.8803C92.8467 25.8013 93.0734 24.8523 93.5269 24.0332C93.9805 23.2142 94.602 22.5837 95.3923 22.1417C96.196 21.6996 97.0902 21.4786 98.0748 21.4786C99.409 21.4786 100.452 21.9011 101.204 22.7462V17.6565H104.236ZM98.5992 29.7859C99.3638 29.7859 99.9989 29.5259 100.504 29.0059C101.01 28.4729 101.262 27.7644 101.262 26.8803C101.262 25.9963 101.01 25.2943 100.504 24.7742C99.9989 24.2412 99.3638 23.9747 98.5992 23.9747C97.8218 23.9747 97.1806 24.2412 96.6752 24.7742C96.1697 25.2943 95.9173 25.9963 95.9173 26.8803C95.9173 27.7644 96.1697 28.4729 96.6752 29.0059C97.1806 29.5259 97.8218 29.7859 98.5992 29.7859ZM113.67 32.36C112.594 32.36 111.551 32.217 110.541 31.931C109.543 31.632 108.74 31.2485 108.13 30.7805L109.199 28.4014C109.782 28.8304 110.476 29.1749 111.279 29.4349C112.082 29.6949 112.886 29.8249 113.689 29.8249C114.583 29.8249 115.244 29.6949 115.672 29.4349C116.099 29.1619 116.313 28.8044 116.313 28.3624C116.313 28.0374 116.183 27.7709 115.924 27.5628C115.678 27.3418 115.354 27.1663 114.952 27.0363C114.564 26.9063 114.033 26.7633 113.359 26.6073C112.322 26.3603 111.474 26.1133 110.813 25.8663C110.152 25.6193 109.582 25.2228 109.102 24.6767C108.636 24.1307 108.403 23.4027 108.403 22.4927C108.403 21.6996 108.616 20.9846 109.044 20.3476C109.472 19.6976 110.113 19.184 110.968 18.807C111.837 18.43 112.892 18.2415 114.137 18.2415C115.004 18.2415 115.853 18.3455 116.682 18.5535C117.511 18.7615 118.237 19.0605 118.859 19.4506L117.887 21.8491C116.631 21.1341 115.374 20.7766 114.117 20.7766C113.236 20.7766 112.582 20.9196 112.154 21.2056C111.739 21.4916 111.532 21.8686 111.532 22.3367C111.532 22.8047 111.772 23.1557 112.251 23.3897C112.744 23.6107 113.489 23.8317 114.486 24.0527C115.523 24.2997 116.372 24.5467 117.032 24.7937C117.693 25.0408 118.257 25.4308 118.723 25.9638C119.203 26.4968 119.442 27.2183 119.442 28.1284C119.442 28.9084 119.222 29.6234 118.782 30.2734C118.354 30.9105 117.706 31.4175 116.838 31.7945C115.969 32.1715 114.914 32.36 113.67 32.36ZM133.858 21.6346V32.126H130.981V30.878C130.579 31.333 130.1 31.684 129.543 31.931C128.986 32.165 128.383 32.282 127.736 32.282C126.362 32.282 125.274 31.8855 124.47 31.0925C123.667 30.2994 123.265 29.1229 123.265 27.5628V21.6346H126.297V27.1143C126.297 28.8044 127.003 29.6494 128.416 29.6494C129.141 29.6494 129.724 29.4154 130.165 28.9474C130.606 28.4664 130.826 27.7579 130.826 26.8218V21.6346H133.858ZM144.791 21.4786C145.763 21.4786 146.644 21.7061 147.434 22.1612C148.238 22.6032 148.866 23.2337 149.32 24.0527C149.773 24.8588 150 25.8013 150 26.8803C150 27.9594 149.773 28.9084 149.32 29.7274C148.866 30.5335 148.238 31.164 147.434 31.619C146.644 32.061 145.763 32.282 144.791 32.282C143.353 32.282 142.258 31.827 141.506 30.917V32.126H138.61V17.6565H141.642V22.7462C142.407 21.9011 143.456 21.4786 144.791 21.4786ZM144.266 29.7859C145.044 29.7859 145.679 29.5259 146.171 29.0059C146.676 28.4729 146.929 27.7644 146.929 26.8803C146.929 25.9963 146.676 25.2943 146.171 24.7742C145.679 24.2412 145.044 23.9747 144.266 23.9747C143.489 23.9747 142.848 24.2412 142.342 24.7742C141.85 25.2943 141.603 25.9963 141.603 26.8803C141.603 27.7644 141.85 28.4729 142.342 29.0059C142.848 29.5259 143.489 29.7859 144.266 29.7859Z" fill="#1C85FE"/>
<defs>
<linearGradient id="paint0_linear_0_1369" x1="33.5418" y1="-0.978693" x2="16.2689" y2="34.2664" gradientUnits="userSpaceOnUse">
<stop stop-color="#0568FF"/>
<stop offset="1" stop-color="#31A0FD"/>
</linearGradient>
</defs>
</svg>
