<svg width="16" height="18" viewBox="0 0 16 18" fill="none" xmlns="http://www.w3.org/2000/svg">
<path d="M13.7144 0H6.85711C6.25078 0 5.66953 0.237117 5.24075 0.658992C4.81218 1.08105 4.57129 1.65341 4.57129 2.25006H9.14274C10.0521 2.25006 10.9242 2.60564 11.5673 3.23864C12.2101 3.87146 12.5714 4.72991 12.5714 5.62505V14.6252H13.7144C14.3205 14.6252 14.902 14.3881 15.3305 13.9662C15.7593 13.5441 16 12.9718 16 12.3751V2.25016C16 1.65351 15.7593 1.08116 15.3305 0.659088C14.902 0.237214 14.3205 9.63754e-05 13.7144 9.63754e-05V0Z" fill="#1C85FE"/>
<path d="M9.14289 3.37488H2.28563C1.67949 3.37488 1.09804 3.612 0.669465 4.03387C0.240695 4.45593 0 5.02829 0 5.62494V15.7499C0 16.3466 0.240695 16.9189 0.669465 17.341C1.09804 17.7629 1.67949 18 2.28563 18H9.14289C9.74922 18 10.3305 17.7629 10.7593 17.341C11.1878 16.9189 11.4287 16.3466 11.4287 15.7499V5.62494C11.4287 5.02829 11.1878 4.45594 10.7593 4.03387C10.3305 3.612 9.74922 3.37488 9.14289 3.37488ZM2.85723 7.31244H8.57178C8.88729 7.31244 9.14309 7.56424 9.14309 7.875C9.14309 8.18556 8.88728 8.43737 8.57178 8.43737H2.85723C2.54173 8.43737 2.28572 8.18556 2.28572 7.875C2.28572 7.56424 2.54173 7.31244 2.85723 7.31244ZM8.57178 14.0624H2.85723C2.54173 14.0624 2.28572 13.8106 2.28572 13.4999C2.28572 13.1893 2.54173 12.9375 2.85723 12.9375H8.57178C8.88729 12.9375 9.14309 13.1893 9.14309 13.4999C9.14309 13.8106 8.88728 14.0624 8.57178 14.0624ZM8.57178 11.25H2.85723C2.54173 11.25 2.28572 10.998 2.28572 10.6874C2.28572 10.3769 2.54173 10.1249 2.85723 10.1249H8.69178C8.95984 10.1816 9.14925 10.4175 9.14313 10.6874C9.15193 10.7377 9.15193 10.7891 9.14313 10.8392C9.07196 11.0897 8.83586 11.2596 8.57182 11.25L8.57178 11.25Z" fill="#1C85FE"/>
</svg>
