<svg width="18" height="18" viewBox="0 0 18 18" fill="none" xmlns="http://www.w3.org/2000/svg">
<path d="M15.2517 9.59992e-05C14.5563 9.59992e-05 13.8607 0.271569 13.3179 0.814105L13.2253 0.906113L17.0972 4.77627L17.1857 4.68828C18.2714 3.60307 18.2714 1.89935 17.1857 0.814009C16.643 0.271336 15.9473 0 15.2519 0L15.2517 9.59992e-05ZM11.6158 2.51525L2.85849 11.268C2.72129 11.4052 2.26132 12.1335 1.84984 13.033C1.06508 14.7603 0.542913 16.2894 0 18C1.44437 17.5347 3.2938 16.8951 4.96058 16.1424C5.86057 15.7311 6.59766 15.2713 6.73486 15.1342L15.4908 6.38212L11.6158 2.51525Z" fill="#1C85FE"/>
</svg>
