<svg width="50" height="50" viewBox="0 0 50 50" fill="none" xmlns="http://www.w3.org/2000/svg">
<path fill-rule="evenodd" clip-rule="evenodd" d="M40.9559 44.2469C46.4813 39.6612 50 32.7415 50 25C50 11.1929 38.8071 0 25 0C11.1929 0 0 11.1929 0 25C0 32.7461 3.52293 39.6694 9.05397 44.2551C8.89142 43.7425 9.10389 43.1534 9.58674 42.9108L18.7275 38.2326C19.3078 37.9403 19.6466 37.4043 19.6466 36.7707V35.4549C19.6466 35.0651 19.5015 34.6752 19.2596 34.3829C17.7118 32.5797 16.6477 29.9971 16.3576 29.1687C16.309 29.0226 16.2125 28.8764 16.1157 28.7788C15.8256 28.5352 15.2935 27.9015 15.0034 26.391C14.7133 24.9291 15.245 24.1007 15.5837 23.7109C15.777 23.5161 15.8738 23.2724 15.8738 23.0287V16.7428C16.454 13.1854 18.5338 11.5287 20.5651 10.7004C22.8867 9.77481 26.9492 9.77481 29.2223 10.6518C31.35 11.4315 33.4781 13.1368 34.107 16.7429L34.1066 23.0287C34.1066 23.2724 34.2035 23.5161 34.3968 23.7109C34.7351 24.1008 35.2672 24.9291 34.977 26.3911C34.6386 27.9019 34.1549 28.5352 33.8647 28.7789C33.7679 28.8764 33.6711 29.0226 33.6229 29.1688C33.3328 29.9484 32.2687 32.6286 30.6726 34.4315C30.4308 34.6752 30.3339 35.0161 30.3339 35.3574V36.8679C30.3339 37.404 30.6241 37.8911 31.1078 38.1348L40.3454 42.9101C40.8906 43.1848 41.0997 43.7496 40.9559 44.2469ZM26.7925 49.9367C26.1651 49.9796 25.557 49.9993 24.9702 50C24.9802 50 24.9901 50 25 50C25.6027 50 26.2005 49.9787 26.7925 49.9367Z" fill="#31A0FD"/>
</svg>
