<svg width="14" height="14" viewBox="0 0 14 14" fill="none" xmlns="http://www.w3.org/2000/svg">
<path fill-rule="evenodd" clip-rule="evenodd" d="M10.2242 9.21618L13.7918 12.7844C14.0693 13.062 14.0702 13.5112 13.7895 13.7921C13.5107 14.0709 13.0545 14.0669 12.782 13.7944L9.21447 10.2261C6.97372 11.9703 3.73256 11.8124 1.67291 9.75238C-0.557637 7.5214 -0.557637 3.90413 1.67291 1.67324C3.90357 -0.557745 7.52003 -0.557745 9.75049 1.67324C11.8101 3.73328 11.968 6.97498 10.2242 9.21626L10.2242 9.21618ZM8.74092 8.74253C10.4139 7.06922 10.4139 4.35648 8.74092 2.68303C7.06793 1.00972 4.35572 1.00972 2.6826 2.68303C1.00961 4.35634 1.00961 7.06908 2.6826 8.74253C4.35558 10.4158 7.06779 10.4158 8.74092 8.74253Z" fill="#717171"/>
</svg>
