<svg width="188" height="142" viewBox="0 0 188 142" fill="none" xmlns="http://www.w3.org/2000/svg">
<path d="M187.205 113.25L19.1907 141.718L0.000976562 28.4698L168.017 0.00227356L187.205 113.25Z" fill="#D1D2DF"/>
<path d="M168.017 0.00139618C168.057 0.0366821 167.605 0.646538 166.708 1.7747C165.703 3.00872 164.38 4.63425 162.724 6.66669C159.105 11.0007 154.049 17.055 147.843 24.4867C135.061 39.5596 117.566 60.1929 98.1867 83.0449L97.7775 83.528L97.2229 83.2203C96.8005 82.9854 96.3406 82.7317 95.883 82.477C69.405 67.7062 45.4446 54.3404 27.9245 44.5674C19.3757 39.7129 12.4071 35.7572 7.4181 32.9241C5.11767 31.5798 3.27601 30.5046 1.88098 29.6897C0.623799 28.9354 -0.0246477 28.5174 0.000716522 28.47C0.0271835 28.4248 0.725269 28.7512 2.03208 29.4173C3.4624 30.1683 5.35038 31.1597 7.70925 32.3981C12.7578 35.1253 19.8069 38.9355 28.4561 43.6113C46.0302 53.2806 70.0688 66.5075 96.6318 81.1239C97.0905 81.3786 97.5493 81.6323 97.9727 81.8672L97.01 82.0414C116.525 59.3051 134.144 38.7778 147.016 23.7809C153.377 16.4815 158.559 10.5364 162.27 6.2785C164.016 4.32436 165.413 2.76058 166.472 1.57398C167.446 0.509781 167.977 -0.0316849 168.017 0.00139618Z" fill="#FAFAFC"/>
<path d="M19.1905 141.719C18.8222 141.502 28.8267 123.838 41.532 102.269C54.2428 80.6925 64.8417 63.3831 65.21 63.6003C65.5773 63.8176 55.576 81.4777 42.8652 103.054C30.1589 124.622 19.5588 141.936 19.1905 141.719Z" fill="#FAFAFC"/>
<path d="M120.82 52.7213C121.107 52.4059 136.202 65.7012 154.532 82.4129C172.868 99.1301 187.493 112.935 187.206 113.25C186.918 113.566 171.826 100.274 153.49 83.5565C135.16 66.8448 120.531 53.0367 120.82 52.7213Z" fill="#FAFAFC"/>
</svg>
